<?xml version="1.0" standalone="no"?><!DOCTYPE svg PUBLIC "-//W3C//DTD SVG 1.1//EN" "http://www.w3.org/Graphics/SVG/1.1/DTD/svg11.dtd"><svg t="1602759631949" class="icon" viewBox="0 0 1024 1024" version="1.1" xmlns="http://www.w3.org/2000/svg" p-id="1293" xmlns:xlink="http://www.w3.org/1999/xlink" width="48" height="48"><defs><style type="text/css"></style></defs><path d="M512 8.533333C230.4 8.533333 8.533333 238.933333 8.533333 512s221.866667 503.466667 503.466667 503.466667 503.466667-221.866667 503.466667-503.466667C1015.466667 238.933333 793.6 8.533333 512 8.533333z m0 947.2C264.533333 955.733333 68.266667 759.466667 68.266667 512S264.533333 68.266667 512 68.266667s443.733333 196.266667 443.733333 443.733333-196.266667 443.733333-443.733333 443.733333z" fill="#1FC281" p-id="1294"></path><path d="M733.866667 341.333333L443.733333 631.466667 290.133333 477.866667c-8.533333-8.533333-34.133333-8.533333-42.666666 0-8.533333 17.066667-8.533333 34.133333 0 42.666666l170.666666 170.666667c8.533333 8.533333 34.133333 8.533333 42.666667 0l315.733333-315.733333c8.533333-8.533333 8.533333-34.133333 0-42.666667-8.533333-8.533333-25.6-8.533333-42.666666 8.533333z" fill="#1FC281" p-id="1295"></path></svg>