<?xml version="1.0" standalone="no"?><!DOCTYPE svg PUBLIC "-//W3C//DTD SVG 1.1//EN" "http://www.w3.org/Graphics/SVG/1.1/DTD/svg11.dtd"><svg t="1602759650433" class="icon" viewBox="0 0 1024 1024" version="1.1" xmlns="http://www.w3.org/2000/svg" p-id="1439" xmlns:xlink="http://www.w3.org/1999/xlink" width="48" height="48"><defs><style type="text/css"></style></defs><path d="M512 68.266667c247.466667 0 452.266667 204.8 452.266667 452.266666S759.466667 964.266667 512 964.266667 59.733333 759.466667 59.733333 512 264.533333 68.266667 512 68.266667zM512 0C230.4 0 0 230.4 0 512s230.4 512 512 512 512-230.4 512-512-230.4-512-512-512z m42.666667 512l170.666666-170.666667c8.533333-8.533333 8.533333-25.6 0-34.133333-17.066667-17.066667-34.133333-17.066667-42.666666 0l-170.666667 170.666667-170.666667-170.666667c-8.533333-8.533333-25.6-8.533333-34.133333 0-8.533333 8.533333-8.533333 25.6 0 34.133333l170.666667 170.666667-170.666667 170.666667c-8.533333 8.533333-8.533333 25.6 0 34.133333 8.533333 8.533333 25.6 8.533333 34.133333 0l170.666667-170.666667 170.666667 170.666667c8.533333 8.533333 25.6 8.533333 34.133333 0 8.533333-8.533333 8.533333-25.6 0-34.133333L554.666667 512z" fill="#FF3F3F" p-id="1440"></path></svg>